<svg id="Layer_1" data-name="Layer 1" xmlns="http://www.w3.org/2000/svg" viewBox="0 0 177.09 210.44"><defs><style>.cls-1{fill:#1f3d79;}.cls-2{fill:#41abe2;}.cls-3{fill:#2c56a3;}</style></defs><path class="cls-1" d="M65.41,206.81A129.35,129.35,0,0,1,78.75,167C89,147.44,94,145.13,116.15,129.85c32.34-22.3,27-76,27-76a95.38,95.38,0,0,0-30.95-13.45s-1.91,15.24-3.38,35.74c-.38,5.37,1.44,29.55-21.43,50.05-3.7,3.32-17.35,17.69-19.93,23.61C55.77,176.74,65.41,206.81,65.41,206.81Z"/><path class="cls-2" d="M65.41,206.81c-35.24-9.7-76.06-47.54-62.87-100.92C12,67.74,39.07,47.73,46,41.53,57.24,31.49,89.75,0,89.75,0A93.56,93.56,0,0,1,112,39.25a94.21,94.21,0,0,1-1.09,52.84c-9.29,28.58-18.62,27.44-35.75,54.12C60.47,169,65.41,206.81,65.41,206.81Z"/><path class="cls-3" d="M65.41,206.81A80.9,80.9,0,0,0,87,210.4c25.27.72,53.7-10.61,71.83-33.87,23.75-30.47,23-73.14,5.1-101.79-8.15-13-20.76-20.93-20.76-20.93a188.1,188.1,0,0,1-5.28,33.87c-6.64,25.53-28.56,40.47-32.85,43.58-6.22,4.49-8.78,6.23-13.27,10C80.56,150.65,68.19,168.68,65.41,206.81Z"/></svg>